<svg xmlns="http://www.w3.org/2000/svg" xmlns:xlink="http://www.w3.org/1999/xlink" width="451" zoomAndPan="magnify" viewBox="0 0 338.25 249.749992" height="333" preserveAspectRatio="xMidYMid meet" version="1.0"><defs><g/><clipPath id="465331ac62"><path d="M 236.292969 55.058594 L 306.375 55.058594 L 306.375 178.496094 L 236.292969 178.496094 Z M 236.292969 55.058594 " clip-rule="nonzero"/></clipPath><clipPath id="bd57f4d571"><path d="M 231.054688 62.652344 L 301.398438 62.652344 L 301.398438 186.050781 L 231.054688 186.050781 Z M 231.054688 62.652344 " clip-rule="nonzero"/></clipPath></defs><g clip-path="url(#465331ac62)"><path fill="#5271ff" d="M 238.351562 178.734375 C 237.984375 178.734375 237.613281 178.636719 237.277344 178.433594 C 236.410156 177.902344 236.058594 176.8125 236.453125 175.875 L 259.550781 121.019531 L 238.355469 121.019531 C 237.640625 121.019531 236.976562 120.648438 236.601562 120.042969 C 236.226562 119.433594 236.191406 118.675781 236.507812 118.039062 L 267.429688 56.199219 C 267.78125 55.5 268.492188 55.058594 269.273438 55.058594 L 302.253906 55.058594 C 303.003906 55.058594 303.695312 55.46875 304.058594 56.128906 C 304.421875 56.785156 304.398438 57.589844 303.996094 58.222656 L 279.890625 96.285156 L 304.316406 96.285156 C 305.117188 96.285156 305.84375 96.75 306.183594 97.476562 C 306.519531 98.203125 306.410156 99.0625 305.890625 99.675781 L 239.933594 178.003906 C 239.527344 178.480469 238.945312 178.734375 238.351562 178.734375 " fill-opacity="1" fill-rule="nonzero"/></g><g fill="#100f0d" fill-opacity="1"><g transform="translate(46.23651, 165.671238)"><g><path d="M 24.789062 0 L 7.738281 0 L 7.738281 -97.8125 L 85.824219 -97.8125 L 85.824219 -83.355469 L 17.226562 -83.355469 L 17.226562 -82.378906 C 19.28125 -80.320312 20.859375 -78.355469 21.964844 -76.480469 C 23.066406 -74.605469 23.8125 -72.578125 24.203125 -70.390625 C 24.59375 -68.207031 24.789062 -65.464844 24.789062 -62.164062 L 24.789062 -42.742188 L 17.039062 -50.390625 L 77.78125 -50.390625 L 77.78125 -36.289062 L 24.789062 -36.289062 Z M 24.789062 0 "/></g></g></g><g fill="#100f0d" fill-opacity="1"><g transform="translate(131.921146, 165.671238)"><g><path d="M 17.226562 -81.441406 C 19.347656 -79.382812 20.941406 -77.433594 22.011719 -75.59375 C 23.085938 -73.75 23.8125 -71.746094 24.203125 -69.570312 C 24.59375 -67.402344 24.789062 -64.621094 24.789062 -61.226562 L 24.789062 -48.296875 L 20.308594 -55.816406 L 80.132812 -55.816406 L 80.132812 -42.359375 L 24.789062 -42.359375 L 24.789062 -15.398438 L 88.433594 -15.398438 L 88.433594 0 L 7.738281 0 L 7.738281 -97.8125 L 88.433594 -97.8125 L 88.433594 -82.417969 L 17.226562 -82.417969 Z M 17.226562 -81.441406 "/></g></g></g><g clip-path="url(#bd57f4d571)"><path fill="#100f0d" d="M 233.121094 186.050781 C 232.75 186.050781 232.378906 185.949219 232.042969 185.746094 C 231.171875 185.214844 230.820312 184.132812 231.214844 183.195312 L 254.402344 128.464844 L 233.125 128.464844 C 232.40625 128.464844 231.742188 128.09375 231.363281 127.488281 C 230.988281 126.882812 230.953125 126.125 231.273438 125.488281 L 262.308594 63.792969 C 262.660156 63.09375 263.378906 62.652344 264.160156 62.652344 L 297.269531 62.652344 C 298.023438 62.652344 298.71875 63.0625 299.082031 63.71875 C 299.445312 64.375 299.421875 65.175781 299.015625 65.8125 L 274.820312 103.785156 L 299.339844 103.785156 C 300.144531 103.785156 300.871094 104.25 301.214844 104.972656 C 301.550781 105.699219 301.441406 106.554688 300.921875 107.167969 L 234.707031 185.320312 C 234.300781 185.796875 233.714844 186.050781 233.121094 186.050781 " fill-opacity="1" fill-rule="nonzero"/></g></svg>