<svg xmlns="http://www.w3.org/2000/svg" xmlns:xlink="http://www.w3.org/1999/xlink" width="917" zoomAndPan="magnify" viewBox="0 0 687.75 531.750006" height="709" preserveAspectRatio="xMidYMid meet" version="1.0"><defs><g/><clipPath id="7c55c43c18"><path d="M 500.496094 368.316406 L 540.976562 368.316406 L 540.976562 440.238281 L 500.496094 440.238281 Z M 500.496094 368.316406 " clip-rule="nonzero"/></clipPath><clipPath id="b981b05713"><path d="M 495.382812 375.0625 L 535.863281 375.0625 L 535.863281 446.984375 L 495.382812 446.984375 Z M 495.382812 375.0625 " clip-rule="nonzero"/></clipPath></defs><g clip-path="url(#7c55c43c18)"><path fill="#5271ff" d="M 501.695312 440.238281 C 501.480469 440.238281 501.265625 440.179688 501.070312 440.0625 C 500.566406 439.75 500.363281 439.117188 500.589844 438.574219 L 514.023438 406.671875 L 501.695312 406.671875 C 501.28125 406.671875 500.894531 406.457031 500.675781 406.105469 C 500.457031 405.75 500.4375 405.308594 500.621094 404.9375 L 518.601562 368.980469 C 518.808594 368.574219 519.222656 368.316406 519.675781 368.316406 L 538.855469 368.316406 C 539.289062 368.316406 539.695312 368.554688 539.90625 368.9375 C 540.117188 369.320312 540.101562 369.785156 539.867188 370.15625 L 525.847656 392.289062 L 540.054688 392.289062 C 540.519531 392.289062 540.941406 392.558594 541.140625 392.980469 C 541.335938 393.40625 541.269531 393.902344 540.96875 394.261719 L 502.613281 439.8125 C 502.378906 440.089844 502.039062 440.238281 501.695312 440.238281 " fill-opacity="1" fill-rule="nonzero"/></g><g fill="#100f0d" fill-opacity="1"><g transform="translate(153.072889, 354.973334)"><g><path d="M 52.914062 0 L 16.519531 0 L 16.519531 -208.808594 L 183.214844 -208.808594 L 183.214844 -177.945312 L 36.773438 -177.945312 L 36.773438 -175.859375 C 41.160156 -171.464844 44.53125 -167.269531 46.886719 -163.265625 C 49.242188 -159.265625 50.835938 -154.933594 51.667969 -150.269531 C 52.5 -145.605469 52.914062 -139.75 52.914062 -132.707031 L 52.914062 -91.246094 L 36.375 -107.574219 L 166.042969 -107.574219 L 166.042969 -77.46875 L 52.914062 -77.46875 Z M 52.914062 0 "/></g></g></g><g fill="#100f0d" fill-opacity="1"><g transform="translate(338.49472, 354.973334)"><g><path d="M 36.773438 -173.859375 C 41.300781 -169.460938 44.707031 -165.300781 46.992188 -161.371094 C 49.277344 -157.441406 50.835938 -153.15625 51.667969 -148.519531 C 52.5 -143.886719 52.914062 -137.945312 52.914062 -130.707031 L 52.914062 -103.105469 L 43.355469 -119.152344 L 171.066406 -119.152344 L 171.066406 -90.421875 L 52.914062 -90.421875 L 52.914062 -32.871094 L 188.785156 -32.871094 L 188.785156 0 L 16.519531 0 L 16.519531 -208.808594 L 188.785156 -208.808594 L 188.785156 -175.9375 L 36.773438 -175.9375 Z M 36.773438 -173.859375 "/></g></g></g><g clip-path="url(#b981b05713)"><path fill="#100f0d" d="M 496.574219 446.984375 C 496.359375 446.984375 496.148438 446.925781 495.953125 446.808594 C 495.453125 446.5 495.25 445.867188 495.476562 445.320312 L 508.820312 413.421875 L 496.574219 413.421875 C 496.160156 413.421875 495.78125 413.203125 495.5625 412.851562 C 495.34375 412.496094 495.324219 412.054688 495.507812 411.6875 L 513.371094 375.726562 C 513.574219 375.320312 513.984375 375.0625 514.4375 375.0625 L 533.488281 375.0625 C 533.921875 375.0625 534.320312 375.300781 534.53125 375.683594 C 534.742188 376.066406 534.726562 376.535156 534.496094 376.902344 L 520.570312 399.035156 L 534.679688 399.035156 C 535.140625 399.035156 535.5625 399.308594 535.757812 399.730469 C 535.953125 400.152344 535.890625 400.652344 535.589844 401.007812 L 497.488281 446.558594 C 497.253906 446.835938 496.914062 446.984375 496.574219 446.984375 " fill-opacity="1" fill-rule="nonzero"/></g><g fill="#000000" fill-opacity="1"><g transform="translate(153.146361, 438.847697)"><g><path d="M 28.0625 0.59375 C 21.988281 0.59375 17.128906 -0.984375 13.484375 -4.140625 C 9.847656 -7.296875 8.03125 -12.632812 8.03125 -20.15625 L 8.03125 -38.265625 C 8.03125 -45.703125 9.847656 -51.019531 13.484375 -54.21875 C 17.128906 -57.414062 21.988281 -59.015625 28.0625 -59.015625 C 34.144531 -59.015625 39.023438 -57.429688 42.703125 -54.265625 C 46.378906 -51.109375 48.21875 -45.8125 48.21875 -38.375 L 36.578125 -35.984375 L 36.578125 -37.0625 C 36.578125 -40.894531 35.816406 -43.488281 34.296875 -44.84375 C 32.773438 -46.207031 30.695312 -46.890625 28.0625 -46.890625 C 25.820312 -46.890625 23.863281 -46.269531 22.1875 -45.03125 C 20.507812 -43.789062 19.671875 -41.65625 19.671875 -38.625 L 19.671875 -19.796875 C 19.671875 -16.671875 20.507812 -14.488281 22.1875 -13.25 C 23.863281 -12.007812 25.820312 -11.390625 28.0625 -11.390625 C 30.695312 -11.390625 32.773438 -12.066406 34.296875 -13.421875 C 35.816406 -14.785156 36.578125 -17.425781 36.578125 -21.34375 L 36.578125 -22.3125 L 48.21875 -19.90625 C 48.21875 -12.550781 46.378906 -7.296875 42.703125 -4.140625 C 39.023438 -0.984375 34.144531 0.59375 28.0625 0.59375 Z M 28.0625 0.59375 "/></g></g></g><g fill="#000000" fill-opacity="1"><g transform="translate(207.001071, 438.847697)"><g><path d="M 28.90625 0.59375 C 22.425781 0.59375 17.328125 -0.984375 13.609375 -4.140625 C 9.890625 -7.296875 8.03125 -12.632812 8.03125 -20.15625 L 8.03125 -38.265625 C 8.03125 -45.703125 9.890625 -51.019531 13.609375 -54.21875 C 17.328125 -57.414062 22.425781 -59.015625 28.90625 -59.015625 C 35.382812 -59.015625 40.5 -57.414062 44.25 -54.21875 C 48.007812 -51.019531 49.890625 -45.703125 49.890625 -38.265625 L 49.890625 -20.15625 C 49.890625 -12.632812 48.007812 -7.296875 44.25 -4.140625 C 40.5 -0.984375 35.382812 0.59375 28.90625 0.59375 Z M 28.90625 -11.390625 C 31.539062 -11.390625 33.757812 -12.007812 35.5625 -13.25 C 37.363281 -14.488281 38.265625 -16.671875 38.265625 -19.796875 L 38.265625 -38.625 C 38.265625 -41.65625 37.363281 -43.789062 35.5625 -45.03125 C 33.757812 -46.269531 31.539062 -46.890625 28.90625 -46.890625 C 26.269531 -46.890625 24.070312 -46.269531 22.3125 -45.03125 C 20.550781 -43.789062 19.671875 -41.65625 19.671875 -38.625 L 19.671875 -19.796875 C 19.671875 -16.671875 20.550781 -14.488281 22.3125 -13.25 C 24.070312 -12.007812 26.269531 -11.390625 28.90625 -11.390625 Z M 28.90625 -11.390625 "/></g></g></g><g fill="#000000" fill-opacity="1"><g transform="translate(263.614479, 438.847697)"><g><path d="M 7.5625 0 L 7.5625 -58.40625 L 16.796875 -58.40625 L 19.1875 -52.65625 C 21.425781 -55.207031 23.960938 -56.90625 26.796875 -57.75 C 29.640625 -58.59375 32.222656 -59.015625 34.546875 -59.015625 C 40.378906 -59.015625 44.59375 -57.273438 47.1875 -53.796875 C 49.789062 -50.316406 51.09375 -45.695312 51.09375 -39.9375 L 51.09375 0 L 39.453125 0 L 39.453125 -35.265625 C 39.453125 -39.179688 38.710938 -42.097656 37.234375 -44.015625 C 35.753906 -45.929688 33.140625 -46.890625 29.390625 -46.890625 C 25.546875 -46.890625 22.882812 -45.929688 21.40625 -44.015625 C 19.925781 -42.097656 19.1875 -39.179688 19.1875 -35.265625 L 19.1875 0 Z M 7.5625 0 "/></g></g></g><g fill="#000000" fill-opacity="1"><g transform="translate(319.868059, 438.847697)"><g><path d="M 7.5625 0 L 7.5625 -58.40625 L 16.796875 -58.40625 L 19.1875 -52.65625 C 21.425781 -55.207031 23.960938 -56.90625 26.796875 -57.75 C 29.640625 -58.59375 32.222656 -59.015625 34.546875 -59.015625 C 40.378906 -59.015625 44.59375 -57.273438 47.1875 -53.796875 C 49.789062 -50.316406 51.09375 -45.695312 51.09375 -39.9375 L 51.09375 0 L 39.453125 0 L 39.453125 -35.265625 C 39.453125 -39.179688 38.710938 -42.097656 37.234375 -44.015625 C 35.753906 -45.929688 33.140625 -46.890625 29.390625 -46.890625 C 25.546875 -46.890625 22.882812 -45.929688 21.40625 -44.015625 C 19.925781 -42.097656 19.1875 -39.179688 19.1875 -35.265625 L 19.1875 0 Z M 7.5625 0 "/></g></g></g><g fill="#000000" fill-opacity="1"><g transform="translate(376.12164, 438.847697)"><g><path d="M 30.109375 0.59375 C 26.109375 0.59375 22.445312 -0.203125 19.125 -1.796875 C 15.8125 -3.398438 13.191406 -5.757812 11.265625 -8.875 C 9.347656 -11.988281 8.390625 -15.75 8.390625 -20.15625 L 8.390625 -38.265625 C 8.390625 -42.734375 9.347656 -46.507812 11.265625 -49.59375 C 13.191406 -52.675781 15.8125 -55.015625 19.125 -56.609375 C 22.445312 -58.210938 26.109375 -59.015625 30.109375 -59.015625 C 34.179688 -59.015625 37.859375 -58.210938 41.140625 -56.609375 C 44.421875 -55.015625 47.019531 -52.675781 48.9375 -49.59375 C 50.851562 -46.507812 51.8125 -42.734375 51.8125 -38.265625 L 51.8125 -25.78125 L 20.03125 -25.78125 L 20.03125 -19.796875 C 20.03125 -17.554688 20.75 -15.59375 22.1875 -13.90625 C 23.625 -12.226562 26.265625 -11.390625 30.109375 -11.390625 C 33.140625 -11.390625 35.570312 -12.007812 37.40625 -13.25 C 39.25 -14.488281 40.171875 -16.671875 40.171875 -19.796875 L 40.171875 -19.671875 L 51.8125 -17.265625 C 51.8125 -13.753906 50.851562 -10.640625 48.9375 -7.921875 C 47.019531 -5.203125 44.421875 -3.101562 41.140625 -1.625 C 37.859375 -0.144531 34.179688 0.59375 30.109375 0.59375 Z M 20.03125 -35.265625 L 40.171875 -35.265625 L 40.171875 -38.625 C 40.171875 -40.9375 39.453125 -42.890625 38.015625 -44.484375 C 36.578125 -46.085938 33.941406 -46.890625 30.109375 -46.890625 C 26.265625 -46.890625 23.625 -46.085938 22.1875 -44.484375 C 20.75 -42.890625 20.03125 -40.9375 20.03125 -38.625 Z M 20.03125 -35.265625 "/></g></g></g><g fill="#000000" fill-opacity="1"><g transform="translate(434.774078, 438.847697)"><g><path d="M 28.0625 0.59375 C 21.988281 0.59375 17.128906 -0.984375 13.484375 -4.140625 C 9.847656 -7.296875 8.03125 -12.632812 8.03125 -20.15625 L 8.03125 -38.265625 C 8.03125 -45.703125 9.847656 -51.019531 13.484375 -54.21875 C 17.128906 -57.414062 21.988281 -59.015625 28.0625 -59.015625 C 34.144531 -59.015625 39.023438 -57.429688 42.703125 -54.265625 C 46.378906 -51.109375 48.21875 -45.8125 48.21875 -38.375 L 36.578125 -35.984375 L 36.578125 -37.0625 C 36.578125 -40.894531 35.816406 -43.488281 34.296875 -44.84375 C 32.773438 -46.207031 30.695312 -46.890625 28.0625 -46.890625 C 25.820312 -46.890625 23.863281 -46.269531 22.1875 -45.03125 C 20.507812 -43.789062 19.671875 -41.65625 19.671875 -38.625 L 19.671875 -19.796875 C 19.671875 -16.671875 20.507812 -14.488281 22.1875 -13.25 C 23.863281 -12.007812 25.820312 -11.390625 28.0625 -11.390625 C 30.695312 -11.390625 32.773438 -12.066406 34.296875 -13.421875 C 35.816406 -14.785156 36.578125 -17.425781 36.578125 -21.34375 L 36.578125 -22.3125 L 48.21875 -19.90625 C 48.21875 -12.550781 46.378906 -7.296875 42.703125 -4.140625 C 39.023438 -0.984375 34.144531 0.59375 28.0625 0.59375 Z M 28.0625 0.59375 "/></g></g></g></svg>